<svg width="24" height="25" viewBox="0 0 24 25" fill="none" xmlns="http://www.w3.org/2000/svg">
<path fill-rule="evenodd" clip-rule="evenodd" d="M8 0.5C3.58172 0.5 0 4.08172 0 8.5V16.5C0 20.9183 3.58172 24.5 8 24.5H16C20.4183 24.5 24 20.9183 24 16.5V8.5C24 4.08172 20.4183 0.5 16 0.5H8ZM12.8571 13.3571H17.1429C17.3702 13.3571 17.5882 13.2668 17.7489 13.1061C17.9097 12.9453 18 12.7273 18 12.5C18 12.2727 17.9097 12.0547 17.7489 11.8939C17.5882 11.7332 17.3702 11.6429 17.1429 11.6429H12.8571V7.35714C12.8571 7.12981 12.7668 6.9118 12.6061 6.75105C12.4453 6.59031 12.2273 6.5 12 6.5C11.7727 6.5 11.5547 6.59031 11.3939 6.75105C11.2332 6.9118 11.1429 7.12981 11.1429 7.35714V11.6429H6.85714C6.62981 11.6429 6.4118 11.7332 6.25105 11.8939C6.09031 12.0547 6 12.2727 6 12.5C6 12.7273 6.09031 12.9453 6.25105 13.1061C6.4118 13.2668 6.62981 13.3571 6.85714 13.3571H11.1429V17.6429C11.1429 17.8702 11.2332 18.0882 11.3939 18.2489C11.5547 18.4097 11.7727 18.5 12 18.5C12.2273 18.5 12.4453 18.4097 12.6061 18.2489C12.7668 18.0882 12.8571 17.8702 12.8571 17.6429V13.3571Z" fill="url(#paint0_linear_440_15668)"/>
<defs>
<linearGradient id="paint0_linear_440_15668" x1="22.7066" y1="1.27143" x2="-3.33377" y2="5.9518" gradientUnits="userSpaceOnUse">
<stop stop-color="#81B5EB"/>
<stop offset="1" stop-color="#BF99FF"/>
</linearGradient>
</defs>
</svg>
