<svg width="25" height="24" viewBox="0 0 25 24" fill="none" xmlns="http://www.w3.org/2000/svg">
<path d="M11.75 18.25H9.5C8.4 18.25 7.5 19.15 7.5 20.25V20.5H6.5C6.09 20.5 5.75 20.84 5.75 21.25C5.75 21.66 6.09 22 6.5 22H18.5C18.91 22 19.25 21.66 19.25 21.25C19.25 20.84 18.91 20.5 18.5 20.5H17.5V20.25C17.5 19.15 16.6 18.25 15.5 18.25H13.25V15.96C13 15.99 12.75 16 12.5 16C12.25 16 12 15.99 11.75 15.96V18.25Z" fill="#F4EEF5"/>
<path d="M18.9803 11.64C19.6403 11.39 20.2203 10.98 20.6803 10.52C21.6103 9.49 22.2203 8.26 22.2203 6.82C22.2203 5.38 21.0903 4.25 19.6503 4.25H19.0903C18.4403 2.92 17.0803 2 15.5003 2H9.50027C7.92027 2 6.56027 2.92 5.91027 4.25H5.35027C3.91027 4.25 2.78027 5.38 2.78027 6.82C2.78027 8.26 3.39027 9.49 4.32027 10.52C4.78027 10.98 5.36027 11.39 6.02027 11.64C7.06027 14.2 9.56027 16 12.5003 16C15.4403 16 17.9403 14.2 18.9803 11.64ZM15.3403 8.45L14.7203 9.21C14.6203 9.32 14.5503 9.54 14.5603 9.69L14.6203 10.67C14.6603 11.27 14.2303 11.58 13.6703 11.36L12.7603 11C12.6203 10.95 12.3803 10.95 12.2403 11L11.3303 11.36C10.7703 11.58 10.3403 11.27 10.3803 10.67L10.4403 9.69C10.4503 9.54 10.3803 9.32 10.2803 9.21L9.66027 8.45C9.27027 7.99 9.44027 7.48 10.0203 7.33L10.9703 7.09C11.1203 7.05 11.3003 6.91 11.3803 6.78L11.9103 5.96C12.2403 5.45 12.7603 5.45 13.0903 5.96L13.6203 6.78C13.7003 6.91 13.8803 7.05 14.0303 7.09L14.9803 7.33C15.5603 7.48 15.7303 7.99 15.3403 8.45Z" fill="#F4EEF5"/>
</svg>
