<svg width="25" height="24" viewBox="0 0 25 24" fill="none" xmlns="http://www.w3.org/2000/svg">
<path d="M16.94 2H8.56C4.92 2 2.75 4.17 2.75 7.81V16.18C2.75 19.83 4.92 22 8.56 22H16.93C20.57 22 22.74 19.83 22.74 16.19V7.81C22.75 4.17 20.58 2 16.94 2ZM9.25 6.38C10.28 6.38 11.13 7.22 11.13 8.26C11.13 9.3 10.29 10.14 9.25 10.14C8.21 10.14 7.37 9.28 7.37 8.25C7.37 7.22 8.22 6.38 9.25 6.38ZM12.75 19.08C10.06 19.08 7.87 16.89 7.87 14.2C7.87 13.5 8.44 12.92 9.14 12.92H16.34C17.04 12.92 17.61 13.49 17.61 14.2C17.63 16.89 15.44 19.08 12.75 19.08ZM16.25 10.12C15.22 10.12 14.37 9.28 14.37 8.24C14.37 7.2 15.21 6.36 16.25 6.36C17.29 6.36 18.13 7.2 18.13 8.24C18.13 9.28 17.28 10.12 16.25 10.12Z" fill="#F4EEF5"/>
</svg>
