<svg width="24" height="24" viewBox="0 0 24 24" fill="none" xmlns="http://www.w3.org/2000/svg">
<circle cx="12" cy="12.1216" r="7" fill="#F4EEF5"/>
<path d="M11.8786 7.79297C10.0077 7.79297 9.65137 8.57497 9.65137 10.0202V10.6339H14.1058V10.0202C14.1058 8.57497 13.7495 7.79297 11.8786 7.79297Z" fill="#7248D6"/>
<path d="M11.8789 15.0689C12.4803 15.0689 12.9678 14.5813 12.9678 13.98C12.9678 13.3786 12.4803 12.8911 11.8789 12.8911C11.2775 12.8911 10.79 13.3786 10.79 13.98C10.79 14.5813 11.2775 15.0689 11.8789 15.0689Z" fill="#7248D6"/>
<path d="M11.8783 2.10156C6.41416 2.10156 1.97949 6.53623 1.97949 12.0004C1.97949 17.4645 6.41416 21.8992 11.8783 21.8992C17.3424 21.8992 21.7771 17.4645 21.7771 12.0004C21.7771 6.53623 17.3424 2.10156 11.8783 2.10156ZM17.2038 14.4751C17.2038 16.6528 16.5307 17.3259 14.353 17.3259H9.40359C7.22586 17.3259 6.55274 16.6528 6.55274 14.4751V13.4852C6.55274 11.7925 6.95859 11.0105 8.16624 10.7432V10.0206C8.16624 9.10001 8.16624 6.30855 11.8783 6.30855C15.5903 6.30855 15.5903 9.10001 15.5903 10.0206V10.7432C16.798 11.0105 17.2038 11.7925 17.2038 13.4852V14.4751Z" fill="#7248D6"/>
</svg>
