<svg width="24" height="24" viewBox="0 0 24 24" fill="none" xmlns="http://www.w3.org/2000/svg">
<path fill-rule="evenodd" clip-rule="evenodd" d="M19.1407 13.8093C18.1476 13.8093 17.3359 13.0066 17.3359 12.0136C17.3359 11.0205 18.1315 10.2178 19.1227 10.2178H19.1407C20.1338 10.2178 20.9365 11.0205 20.9365 12.0136C20.9365 13.0066 20.1338 13.8093 19.1407 13.8093Z" fill="#F4EEF5"/>
<path fill-rule="evenodd" clip-rule="evenodd" d="M11.9397 13.8093C10.9466 13.8093 10.1367 13.0066 10.1367 12.0136C10.1367 11.0205 10.9305 10.2178 11.9235 10.2178H11.9397C12.9327 10.2178 13.7355 11.0205 13.7355 12.0136C13.7355 13.0066 12.9327 13.8093 11.9397 13.8093Z" fill="#F4EEF5"/>
<path fill-rule="evenodd" clip-rule="evenodd" d="M4.74031 13.8093C3.74724 13.8093 2.93555 13.0066 2.93555 12.0136C2.93555 11.0205 3.73108 10.2178 4.72414 10.2178H4.74031C5.73337 10.2178 6.53609 11.0205 6.53609 12.0136C6.53609 13.0066 5.73337 13.8093 4.74031 13.8093Z" fill="#F4EEF5"/>
</svg>
