<svg width="87" height="87" viewBox="0 0 87 87" fill="none" xmlns="http://www.w3.org/2000/svg">
<mask id="path-1-inside-1_442_11428" fill="white">
<path d="M0 43.5C0 52.1035 2.55123 60.5138 7.33107 67.6673C12.1109 74.8208 18.9047 80.3963 26.8533 83.6888C34.8019 86.9812 43.5483 87.8426 51.9864 86.1642C60.4246 84.4857 68.1756 80.3427 74.2591 74.2591C80.3427 68.1756 84.4857 60.4246 86.1642 51.9864C87.8426 43.5483 86.9812 34.8019 83.6888 26.8533C80.3963 18.9047 74.8208 12.1109 67.6673 7.33107C60.5138 2.55123 52.1035 0 43.5 0V8.7C50.3828 8.7 57.111 10.741 62.8338 14.5649C68.5567 18.3887 73.0171 23.8237 75.651 30.1826C78.2849 36.5415 78.9741 43.5386 77.6313 50.2891C76.2886 57.0397 72.9742 63.2404 68.1073 68.1073C63.2404 72.9742 57.0397 76.2886 50.2891 77.6313C43.5386 78.9741 36.5415 78.2849 30.1826 75.651C23.8237 73.0171 18.3887 68.5567 14.5649 62.8338C10.741 57.111 8.7 50.3828 8.7 43.5H0Z"/>
</mask>
<path d="M0 43.5C0 52.1035 2.55123 60.5138 7.33107 67.6673C12.1109 74.8208 18.9047 80.3963 26.8533 83.6888C34.8019 86.9812 43.5483 87.8426 51.9864 86.1642C60.4246 84.4857 68.1756 80.3427 74.2591 74.2591C80.3427 68.1756 84.4857 60.4246 86.1642 51.9864C87.8426 43.5483 86.9812 34.8019 83.6888 26.8533C80.3963 18.9047 74.8208 12.1109 67.6673 7.33107C60.5138 2.55123 52.1035 0 43.5 0V8.7C50.3828 8.7 57.111 10.741 62.8338 14.5649C68.5567 18.3887 73.0171 23.8237 75.651 30.1826C78.2849 36.5415 78.9741 43.5386 77.6313 50.2891C76.2886 57.0397 72.9742 63.2404 68.1073 68.1073C63.2404 72.9742 57.0397 76.2886 50.2891 77.6313C43.5386 78.9741 36.5415 78.2849 30.1826 75.651C23.8237 73.0171 18.3887 68.5567 14.5649 62.8338C10.741 57.111 8.7 50.3828 8.7 43.5H0Z" fill="url(#paint0_linear_442_11428)" stroke="url(#paint1_linear_442_11428)" stroke-width="2" mask="url(#path-1-inside-1_442_11428)"/>
<mask id="path-2-inside-2_442_11428" fill="white">
<path d="M0 43.5C0 37.7875 1.12516 32.1309 3.31124 26.8533C5.49732 21.5756 8.70151 16.7802 12.7409 12.7409C16.7802 8.70151 21.5756 5.49732 26.8533 3.31124C32.1309 1.12516 37.7875 0 43.5 0V8.7C38.93 8.7 34.4047 9.60013 30.1826 11.349C25.9605 13.0979 22.1242 15.6612 18.8927 18.8927C15.6612 22.1242 13.0979 25.9605 11.349 30.1826C9.60013 34.4047 8.7 38.93 8.7 43.5H0Z"/>
</mask>
<path d="M0 43.5C0 37.7875 1.12516 32.1309 3.31124 26.8533C5.49732 21.5756 8.70151 16.7802 12.7409 12.7409C16.7802 8.70151 21.5756 5.49732 26.8533 3.31124C32.1309 1.12516 37.7875 0 43.5 0V8.7C38.93 8.7 34.4047 9.60013 30.1826 11.349C25.9605 13.0979 22.1242 15.6612 18.8927 18.8927C15.6612 22.1242 13.0979 25.9605 11.349 30.1826C9.60013 34.4047 8.7 38.93 8.7 43.5H0Z" fill="#180323" stroke="url(#paint2_linear_442_11428)" stroke-width="2" mask="url(#path-2-inside-2_442_11428)"/>
<path d="M30.256 49V48.6C30.256 48.1947 30.288 47.8587 30.352 47.592C30.416 47.3147 30.5493 46.9947 30.752 46.632L34.752 39.512V39.304H28.464V37.8H36.496V39.784L32.288 47.336C32.16 47.5707 32.0693 47.784 32.016 47.976C31.9627 48.1573 31.936 48.3867 31.936 48.664V49H30.256ZM41.7695 49.224C40.9268 49.224 40.1962 49.0693 39.5775 48.76C38.9588 48.4507 38.4788 48.0133 38.1375 47.448C37.8068 46.8827 37.6415 46.2267 37.6415 45.48V45.304H39.3535V45.464C39.3535 46.1467 39.5615 46.696 39.9775 47.112C40.4042 47.5173 40.9962 47.72 41.7535 47.72C42.5322 47.72 43.1348 47.5067 43.5615 47.08C43.9882 46.6533 44.2015 46.0773 44.2015 45.352V45.208C44.2015 44.5147 43.9882 43.96 43.5615 43.544C43.1455 43.128 42.6122 42.92 41.9615 42.92C41.5988 42.92 41.2948 42.9787 41.0495 43.096C40.8148 43.2027 40.6228 43.336 40.4735 43.496C40.3348 43.656 40.2175 43.8107 40.1215 43.96H37.9935V37.8H45.4975V39.32H39.6735V42.616H39.9295C40.0362 42.4347 40.1855 42.264 40.3775 42.104C40.5802 41.9333 40.8415 41.7947 41.1615 41.688C41.4815 41.5813 41.8655 41.528 42.3135 41.528C42.9748 41.528 43.5722 41.672 44.1055 41.96C44.6495 42.2373 45.0815 42.6533 45.4015 43.208C45.7215 43.752 45.8815 44.4133 45.8815 45.192V45.368C45.8815 46.1467 45.7162 46.824 45.3855 47.4C45.0548 47.976 44.5802 48.424 43.9615 48.744C43.3535 49.064 42.6228 49.224 41.7695 49.224ZM48.7716 49.208L47.7476 48.376L56.4996 37.592L57.5236 38.424L48.7716 49.208ZM55.6996 49.176C54.9103 49.176 54.2863 48.9573 53.8276 48.52C53.369 48.072 53.1396 47.4693 53.1396 46.712V46.616C53.1396 45.848 53.369 45.2453 53.8276 44.808C54.2863 44.36 54.9103 44.136 55.6996 44.136C56.4783 44.136 57.1023 44.36 57.5716 44.808C58.041 45.2453 58.2756 45.848 58.2756 46.616V46.712C58.2756 47.4693 58.041 48.072 57.5716 48.52C57.113 48.9573 56.489 49.176 55.6996 49.176ZM55.6996 48.056C56.0836 48.056 56.3823 47.9387 56.5956 47.704C56.8196 47.4693 56.9316 47.16 56.9316 46.776V46.552C56.9316 46.1573 56.8196 45.8427 56.5956 45.608C56.3823 45.3733 56.0836 45.256 55.6996 45.256C55.3263 45.256 55.0276 45.3733 54.8036 45.608C54.5903 45.8427 54.4836 46.1573 54.4836 46.552V46.776C54.4836 47.16 54.5903 47.4693 54.8036 47.704C55.0276 47.9387 55.3263 48.056 55.6996 48.056ZM49.5716 42.664C48.7823 42.664 48.153 42.4453 47.6836 42.008C47.225 41.56 46.9956 40.9573 46.9956 40.2V40.088C46.9956 39.32 47.225 38.7173 47.6836 38.28C48.153 37.8427 48.7823 37.624 49.5716 37.624C50.3503 37.624 50.969 37.8427 51.4276 38.28C51.897 38.7173 52.1316 39.32 52.1316 40.088V40.2C52.1316 40.9573 51.9023 41.56 51.4436 42.008C50.985 42.4453 50.361 42.664 49.5716 42.664ZM49.5716 41.544C49.945 41.544 50.2383 41.4267 50.4516 41.192C50.6756 40.9467 50.7876 40.632 50.7876 40.248V40.024C50.7876 39.64 50.6756 39.3307 50.4516 39.096C50.2383 38.8613 49.945 38.744 49.5716 38.744C49.1876 38.744 48.8836 38.8613 48.6596 39.096C48.4463 39.3307 48.3396 39.64 48.3396 40.024V40.248C48.3396 40.632 48.4463 40.9467 48.6596 41.192C48.8836 41.4267 49.1876 41.544 49.5716 41.544Z" fill="url(#paint3_linear_442_11428)"/>
<defs>
<linearGradient id="paint0_linear_442_11428" x1="4.68863" y1="84.2036" x2="99.0849" y2="67.2372" gradientUnits="userSpaceOnUse">
<stop stop-color="#81B5EB"/>
<stop offset="1" stop-color="#BF99FF"/>
</linearGradient>
<linearGradient id="paint1_linear_442_11428" x1="4.68863" y1="84.2036" x2="99.0849" y2="67.2372" gradientUnits="userSpaceOnUse">
<stop stop-color="#81B5EB"/>
<stop offset="1" stop-color="#BF99FF"/>
</linearGradient>
<linearGradient id="paint2_linear_442_11428" x1="4.68863" y1="84.2036" x2="99.0849" y2="67.2372" gradientUnits="userSpaceOnUse">
<stop stop-color="#81B5EB"/>
<stop offset="1" stop-color="#BF99FF"/>
</linearGradient>
<linearGradient id="paint3_linear_442_11428" x1="57.3293" y1="33.6429" x2="25.1081" y2="42.6194" gradientUnits="userSpaceOnUse">
<stop stop-color="#B897F0"/>
<stop offset="1" stop-color="#95B9E7"/>
</linearGradient>
</defs>
</svg>
