<svg width="24" height="25" viewBox="0 0 24 25" fill="none" xmlns="http://www.w3.org/2000/svg">
<path d="M11.01 20.52C15.9861 20.52 20.02 16.4861 20.02 11.51C20.02 6.53391 15.9861 2.5 11.01 2.5C6.03391 2.5 2 6.53391 2 11.51C2 16.4861 6.03391 20.52 11.01 20.52Z" fill="#F4EEF5"/>
<path d="M21.9901 19.45C21.6601 18.84 20.9601 18.5 20.0201 18.5C19.3101 18.5 18.7001 18.79 18.3401 19.29C17.9801 19.79 17.9001 20.46 18.1201 21.13C18.5501 22.43 19.3001 22.72 19.7101 22.77C19.7701 22.78 19.8301 22.78 19.9001 22.78C20.3401 22.78 21.0201 22.59 21.6801 21.6C22.2101 20.83 22.3101 20.06 21.9901 19.45Z" fill="#F4EEF5"/>
</svg>
